<?xml version="1.0" encoding="utf-8"?>
<!-- Generator: Adobe Illustrator 28.1.0, SVG Export Plug-In . SVG Version: 6.00 Build 0)  -->
<svg version="1.1" id="Layer_1" xmlns="http://www.w3.org/2000/svg" xmlns:xlink="http://www.w3.org/1999/xlink" x="0px" y="0px"
	 width="16px" height="16px" viewBox="0 0 16 16" style="enable-background:new 0 0 16 16;" xml:space="preserve">
<style type="text/css">
	.st0{fill:#FFD43B;}
	.st1{fill:none;stroke:#495057;stroke-width:2;stroke-linecap:round;stroke-miterlimit:10;}
</style>
<path class="st0" d="M3,10.9787226l0.1277111,0.094923c0.6423388,0.4774265,0.3046699,1.4977837-0.4956644,1.4977837H0.571428
	C0.255837,12.5714293,0,12.8272667,0,13.1428585v0.000001c0,0.3155909,0.255837,0.5714283,0.571428,0.5714283h6.8571444
	C7.744163,13.7142878,8,13.9701252,8,14.2857161v0.0000019c0,0.3155909-0.255837,0.5714283-0.5714278,0.5714283H6.2857137
	c-0.3155909,0-0.5714278,0.2558374-0.5714278,0.5714283v0.000001c0,0.3155918,0.255837,0.5714283,0.5714278,0.5714283h6.8571439
	c0.3155909,0,0.5714283-0.2558365,0.5714283-0.5714283v-0.000001c0-0.3155909-0.2558374-0.5714283-0.5714283-0.5714283H11.999999
	c-0.3155909,0-0.5714273-0.2558374-0.5714273-0.5714283v-0.0000019c0-0.3155909,0.2558365-0.5714283,0.5714273-0.5714283h2.2857161
	c0.3155909,0,0.5714273-0.2558374,0.5714273-0.5714283v-0.000001c0-0.3155918-0.2558365-0.5714293-0.5714273-0.5714293h-3.4285727
	c-0.3155909,0-0.5714283-0.2558374-0.5714283-0.5714283V12c0-0.3155918,0.2558374-0.5714293,0.5714283-0.5714293h4.5714293
	C15.7441626,11.4285707,16,11.1727343,16,10.8571424v-0.000001c0-0.3155909-0.2558374-0.5714283-0.5714283-0.5714283h-2.2857151
	c-0.3155909,0-0.5714283-0.2558374-0.5714283-0.5714283V9.7133846c0-0.4742317,0.050724-0.9471025,0.1513052-1.4105444
	l0.2204456-1.0157356"/>
<circle class="st0" cx="7" cy="6.5" r="6"/>
<line class="st1" x1="5.5911083" y1="4.2923388" x2="5.5911083" y2="4.2923388"/>
<line class="st1" x1="10" y1="7" x2="10" y2="7"/>
<path class="st1" d="M4,7c0.8965087,1.9225693,3,3,5,3"/>
</svg>
