<?xml version="1.0" encoding="utf-8"?>
<!-- Generator: Adobe Illustrator 28.1.0, SVG Export Plug-In . SVG Version: 6.00 Build 0)  -->
<svg version="1.1" id="Layer_1" xmlns="http://www.w3.org/2000/svg" xmlns:xlink="http://www.w3.org/1999/xlink" x="0px" y="0px"
	 width="16px" height="16px" viewBox="0 0 16 16" style="enable-background:new 0 0 16 16;" xml:space="preserve">
<style type="text/css">
	.st0{fill:#FCC419;}
	.st1{fill:#FF6B6B;}
	.st2{fill:#F8F9FA;}
	.st3{fill:none;stroke:#495057;stroke-linecap:round;stroke-linejoin:round;stroke-miterlimit:10;}
	.st4{fill:none;stroke:#495057;stroke-linecap:round;stroke-miterlimit:10;}
	.st5{fill:none;stroke:#339AF0;stroke-width:2;stroke-linecap:round;stroke-linejoin:round;stroke-miterlimit:10;}
</style>
<circle class="st0" cx="8" cy="8" r="8"/>
<path class="st1" d="M13,8c0,2.7614241-2.2385759,5-5,5s-5-2.2385759-5-5H13z"/>
<rect x="3" y="8" class="st2" width="10" height="2"/>
<path class="st3" d="M13,8c0,2.7614241-2.2385759,5-5,5s-5-2.2385759-5-5H13z"/>
<path class="st4" d="M10,5.5000072l0.000001-0.000001c0.5522842-0.5522842,1.4477139-0.5522842,1.9999981,0L12,5.5000072"/>
<path class="st4" d="M6,5.5000072l-0.000001-0.000001c-0.5522842-0.5522842-1.4477139-0.5522842-1.9999981,0L4,5.5000072"/>
<line class="st5" x1="14" y1="2" x2="14" y2="4"/>
</svg>
